<svg height="512" viewBox="0 0 60 60" width="512" xmlns="http://www.w3.org/2000/svg"><g id="Page-1" fill="none" fill-rule="evenodd"><g id="008---Sketchpad" fill-rule="nonzero"><path id="Shape" d="m7 1c-1.10320187.0032948-1.9967052.89679813-2 2v4h-4v-4c.0032948-1.10320187.89679813-1.9967052 2-2z" fill="#ff9801"/><path id="Shape" d="m45 3v2.03l-.02-.02c-.3930079-.38997787-1.0269921-.38997787-1.42 0l-1.41 1.41c-.1516183.15934502-.2495329.36216819-.28.58h-36.87v-4c.0032948-1.10320187.89679813-1.9967052 2-2h36c1.1032019.0032948 1.9967052.89679813 2 2z" fill="#ffdc00"/><path id="Shape" d="m43 1h-3c1.1032019.0032948 1.9967052.89679813 2 2v2.03l-.02-.02c-.3930079-.38997787-1.0269921-.38997787-1.42 0l-1.41 1.41c-.1516183.15934502-.2495329.36216819-.28.58h3c.0304671-.21783181.1283817-.42065498.28-.58l1.41-1.41c.3930079-.38997787 1.0269921-.38997787 1.42 0l.02.02v-2.03c-.0032948-1.10320187-.8967981-1.9967052-2-2z" fill="#fec108"/><path id="Shape" d="m45 53v4c-.0032948 1.1032019-.8967981 1.9967052-2 2h-40c-1.10320187-.0032948-1.9967052-.8967981-2-2v-50h4v38c0 4.418278 3.581722 8 8 8z" fill="#cfd8dc"/><path id="Shape" d="m45 26.2v14.8h-22c-1.1032019.0032948-1.9967052.8967981-2 2v2c-.0000001 4.4182779-3.5817221 7.9999998-8 7.9999998-4.41827793 0-7.99999991-3.5817219-8-7.9999998v-38h36.87c-.0438971.3084469.0598142.61958071.28.84l.71.71-13.73 13.72c-.129489.1309845-.2405118.2790149-.33.44.62.2 4.38 1.52 4.87 4.93 3.4.48 4.72 4.24 4.92 4.86.1609851-.0894882.3090155-.200511.44-.33z" fill="#f5f5f5"/><path id="Shape" d="m42 29.2v11.8h3v-14.8z" fill="#cfd8dc"/><path id="Shape" d="m18 43v2c-.0014956 3.8386987-2.7293818 7.1352442-6.5 7.855 2.3424542.452662 4.7646031-.1658212 6.6032741-1.6861118 1.8386711-1.5202906 2.9012199-3.7831023 2.8967259-6.1688882v-2c.0032948-1.1032019.8967981-1.9967052 2-2h-3c-1.1032019.0032948-1.9967052.8967981-2 2z" fill="#cfd8dc"/><path id="Shape" d="m59 43v2c0 4.418278-3.581722 8-8 8h-38c4.418278 0 8-3.581722 8-8v-2c.0032948-1.1032019.8967981-1.9967052 2-2h34c1.1032019.0032948 1.9967052.8967981 2 2z" fill="#f5f5f5"/><path id="Shape" d="m57 41h-3c1.1032019.0032948 1.9967052.8967981 2 2v2c0 4.418278-3.581722 8-8 8h3c4.418278 0 8-3.581722 8-8v-2c-.0032948-1.1032019-.8967981-1.9967052-2-2z" fill="#cfd8dc"/><path id="Shape" d="m56.29 17.74-1.41 1.41c-.3930079.3899779-1.0269921.3899779-1.42 0l-11.31-11.31c-.386207-.39455383-.386207-1.02544617 0-1.42l1.41-1.41c.3930079-.38997787 1.0269921-.38997787 1.42 0 1.14 1.136-4.091-4.091 11.31 11.31.3899779.3930079.3899779 1.0269921 0 1.42z" fill="#7f8e94"/><path id="Shape" d="m47.7570192 5.54264569h10c1.1045695 0 2 .8954305 2 2v4.00000001h-14v-4.00000001c0-1.1045695.8954305-2 2-2z" fill="#e91e63" transform="matrix(.707 .707 -.707 .707 21.493 -34.803)"/><path id="Shape" d="m58.414 9.958-7.071-7.071c-.7809997-.78076388-2.0470003-.78076388-2.828 0l-.086.085 6.985 6.986c.7807639.7809997.7807639 2.0470003 0 2.828l-1.328 1.329 1.5 1.5 2.828-2.829c.7807639-.7809997.7807639-2.0470003 0-2.828z" fill="#ad1457"/><path id="Shape" d="m32.39 33.93-4.87 1.05c-.3347501.0737969-.6839721-.0290097-.9253435-.2724094-.2413713-.2433997-.341252-.5934698-.2646565-.9275906l1.05-4.87c.99242.6561183 1.9140285 1.4135129 2.75 2.26.8497933.8365993 1.6074553 1.7618856 2.26 2.76z" fill="#607d8b"/><path id="Shape" d="m38.59 32.5c-.1708738.0990661-.3565838.1699735-.55.21l-5.65 1.22c-.6525447-.9981144-1.4102067-1.9234007-2.26-2.76-.8359715-.8464871-1.75758-1.6038817-2.75-2.26l1.21-5.65c.0400265-.1934162.1109339-.3791262.21-.55.62.2 4.38 1.52 4.87 4.93 3.4.48 4.72 4.24 4.92 4.86z" fill="#ffe0b2"/><path id="Shape" d="m52.76 18.44v.01l-7.76 7.75-5.97 5.97c-.1309845.129489-.2790149.2405118-.44.33-.2-.62-1.52-4.38-4.92-4.86-.49-3.41-4.25-4.73-4.87-4.93.0894882-.1609851.200511-.3090155.33-.44l13.73-13.72z" fill="#02a9f4"/><path id="Shape" d="m42.86 8.55-1.5 1.5 8.4 8.391v.01l-7.76 7.749-4.33 4.33c.3815256.6190368.6902398 1.2800879.92 1.97.1609851-.0894882.3090155-.200511.44-.33l5.97-5.97 7.76-7.75v-.01z" fill="#0377bc"/><g fill="#000"><path id="Shape" d="m57 40h-11v-13.385l6.758-6.758c.7809997.7807639 2.0470003.7807639 2.828 0l1.414-1.414c.7807639-.7809997.7807639-2.0470003 0-2.828l2.121-2.122c.562719-.5626237.8788593-1.3257625.8788593-2.1215s-.3161403-1.55887626-.8788593-2.1215l-7.07-7.07c-1.1869844-1.13410253-3.0560156-1.13410253-4.243 0l-1.808 1.807v-.987c0-1.65685425-1.3431458-3-3-3h-40c-1.65685425 0-3 1.34314575-3 3v54c0 1.6568542 1.34314575 3 3 3h40c1.6568542 0 3-1.3431458 3-3v-3h5c4.9682782-.0055111 8.9944889-4.0317218 9-9v-2c0-1.6568542-1.3431458-3-3-3zm-13 0h-21c-1.6568542 0-3 1.3431458-3 3v2c-.0000001 3.8659932-3.1340068 6.9999999-7 6.9999999-3.86599319 0-6.99999992-3.1340067-7-6.9999999v-37h35.065c.0946372.20092886.2224226.38449357.378.543l-13.017 13.019c-.4088035.4074863-.690833.9246561-.812 1.489l-2.265 10.515c-.0289485.1428138-.0426918.2882916-.041.434h-6.308c-.5522847 0-1 .4477153-1 1s.4477153 1 1 1h8.31.009c.1378669-.0005753.2752904-.0156584.41-.045l10.52-2.266c.5643107-.1206694 1.0815265-.4023766 1.489-.811l4.262-4.263zm-16.7-6.007.726-3.369c.4862817.3933285.9515881.811904 1.394 1.254.4413285.4408456.8589173.9048332 1.251 1.39zm5.529-1.188c-1.2054101-1.6684202-2.670302-3.1329745-4.339-4.338l.952-4.416c1.152.55 2.942 1.713 3.23 3.726.0630102.439606.408394.7849898.848.848 1.7045947.3873526 3.1041039 1.5986106 3.732 3.23zm1.29-7.04c-.8065179-1.510055-2.0833708-2.7159912-3.637-3.435l12.375-12.372 3.537 3.535zm4.848 5.052c-.7187552-1.5537234-1.9242923-2.8308766-3.434-3.638l12.275-12.272 3.536 3.536zm15.2-12.374-.707-.707-4.95-4.95-5.653-5.657 1.415-1.414 5.657 5.657 4.95 4.95.707.707zm-4.945-14.849c.3956857-.37765187 1.0183143-.37765187 1.414 0l7.071 7.071c.3903819.3904999.3903819 1.0235001 0 1.414l-2.121 2.121-4.243-4.242-4.243-4.243zm-40.222-1.594h34c.5522847 0 1 .44771525 1 1v.741c-.4320037.05563002-.8334999.25251084-1.142.56l-1.415 1.414c-.0866915.08751787-.1650308.18293113-.234.285h-35.209v-3c0-.55228475.44771525-1 1-1zm-7 1c0-.55228475.44771525-1 1-1h1.184c-.11843775.32025698-.18068557.65856033-.184 1v3h-2zm42 54c0 .5522847-.4477153 1-1 1h-40c-.55228475 0-1-.4477153-1-1v-49h2v37c.00551113 4.9682782 4.03172183 8.9944889 9 9h31zm14-12c-.0044086 3.8641657-3.1358343 6.9955914-7 7h-32.349c2.1178521-1.7065139 3.3491616-4.2801678 3.349-7v-2c0-.5522847.4477153-1 1-1h34c.5522847 0 1 .4477153 1 1z"/><path id="Shape" d="m55 44h-2c-.5522847 0-1 .4477153-1 1s.4477153 1 1 1h2c.5522847 0 1-.4477153 1-1s-.4477153-1-1-1z"/><path id="Shape" d="m49 44h-18c-.5522847 0-1 .4477153-1 1s.4477153 1 1 1h18c.5522847 0 1-.4477153 1-1s-.4477153-1-1-1z"/><path id="Shape" d="m27 44h-2c-.5522847 0-1 .4477153-1 1s.4477153 1 1 1h2c.5522847 0 1-.4477153 1-1s-.4477153-1-1-1z"/><path id="Shape" d="m15 34h-2c-.5522847 0-1 .4477153-1 1s.4477153 1 1 1h2c.5522847 0 1-.4477153 1-1s-.4477153-1-1-1z"/></g></g></g></svg>